<svg width="236" height="17" viewBox="0 0 236 17" fill="none" xmlns="http://www.w3.org/2000/svg">
<path d="M0.496 16V0.599999H3.312L10.55 11.446V0.599999H13.366V16H10.55L3.312 5.176V16H0.496ZM20.3335 16V10.522L15.1635 0.599999H18.3535L21.7635 7.706L25.1515 0.599999H28.2975L23.1495 10.522V16H20.3335ZM36.0872 16.264C34.5325 16.264 33.1979 15.934 32.0832 15.274C30.9685 14.5993 30.1105 13.668 29.5092 12.48C28.9079 11.2773 28.6072 9.89133 28.6072 8.322C28.6072 6.75267 28.9079 5.36667 29.5092 4.164C30.1105 2.96133 30.9685 2.02267 32.0832 1.348C33.1979 0.673333 34.5325 0.336 36.0872 0.336C37.9352 0.336 39.4459 0.797999 40.6192 1.722C41.8072 2.63133 42.5479 3.91467 42.8412 5.572H39.7392C39.5485 4.736 39.1379 4.08333 38.5072 3.614C37.8912 3.13 37.0699 2.888 36.0432 2.888C34.6205 2.888 33.5059 3.372 32.6992 4.34C31.8925 5.308 31.4892 6.63533 31.4892 8.322C31.4892 10.0087 31.8925 11.336 32.6992 12.304C33.5059 13.2573 34.6205 13.734 36.0432 13.734C37.0699 13.734 37.8912 13.514 38.5072 13.074C39.1379 12.6193 39.5485 11.996 39.7392 11.204H42.8412C42.5479 12.788 41.8072 14.0273 40.6192 14.922C39.4459 15.8167 37.9352 16.264 36.0872 16.264ZM56.5161 16.264C55.3867 16.264 54.3674 16.044 53.4581 15.604C52.5487 15.1493 51.8227 14.4673 51.2801 13.558C50.7521 12.6487 50.4881 11.4973 50.4881 10.104V0.599999H53.3041V10.126C53.3041 11.3287 53.5901 12.2233 54.1621 12.81C54.7487 13.3967 55.5554 13.69 56.5821 13.69C57.5941 13.69 58.3934 13.3967 58.9801 12.81C59.5667 12.2233 59.8601 11.3287 59.8601 10.126V0.599999H62.6761V10.104C62.6761 11.4973 62.3974 12.6487 61.8401 13.558C61.2827 14.4673 60.5347 15.1493 59.5961 15.604C58.6721 16.044 57.6454 16.264 56.5161 16.264ZM65.4847 16V5.088H67.9927L68.2567 7.134C68.6527 6.43 69.188 5.87267 69.8627 5.462C70.552 5.03667 71.3587 4.824 72.2827 4.824V7.794H71.4907C70.8747 7.794 70.3247 7.88933 69.8407 8.08C69.3567 8.27067 68.9754 8.60067 68.6967 9.07C68.4327 9.53933 68.3007 10.192 68.3007 11.028V16H65.4847ZM80.6753 16.264C79.854 16.264 79.1353 16.11 78.5193 15.802C77.9033 15.494 77.4047 15.0613 77.0233 14.504L76.7153 16H74.2073V0.159999H77.0233V6.65C77.3753 6.166 77.8373 5.74067 78.4093 5.374C78.996 5.00733 79.7513 4.824 80.6753 4.824C81.702 4.824 82.6187 5.07333 83.4253 5.572C84.232 6.07067 84.87 6.75267 85.3393 7.618C85.8087 8.48333 86.0433 9.466 86.0433 10.566C86.0433 11.666 85.8087 12.6487 85.3393 13.514C84.87 14.3647 84.232 15.0393 83.4253 15.538C82.6187 16.022 81.702 16.264 80.6753 16.264ZM80.0813 13.8C80.976 13.8 81.7167 13.4993 82.3033 12.898C82.89 12.2967 83.1833 11.5193 83.1833 10.566C83.1833 9.61267 82.89 8.828 82.3033 8.212C81.7167 7.596 80.976 7.288 80.0813 7.288C79.172 7.288 78.424 7.596 77.8373 8.212C77.2653 8.81333 76.9793 9.59067 76.9793 10.544C76.9793 11.4973 77.2653 12.282 77.8373 12.898C78.424 13.4993 79.172 13.8 80.0813 13.8ZM92.3209 16.264C91.3822 16.264 90.6122 16.1173 90.0109 15.824C89.4096 15.516 88.9622 15.1127 88.6689 14.614C88.3756 14.1153 88.2289 13.5653 88.2289 12.964C88.2289 11.952 88.6249 11.1307 89.4169 10.5C90.2089 9.86933 91.3969 9.554 92.9809 9.554H95.7529V9.29C95.7529 8.542 95.5402 7.992 95.1149 7.64C94.6896 7.288 94.1616 7.112 93.5309 7.112C92.9589 7.112 92.4602 7.25133 92.0349 7.53C91.6096 7.794 91.3456 8.19 91.2429 8.718H88.4929C88.5662 7.926 88.8302 7.23667 89.2849 6.65C89.7542 6.06333 90.3556 5.616 91.0889 5.308C91.8222 4.98533 92.6436 4.824 93.5529 4.824C95.1076 4.824 96.3322 5.21267 97.2269 5.99C98.1216 6.76733 98.5689 7.86733 98.5689 9.29V16H96.1709L95.9069 14.24C95.5842 14.8267 95.1296 15.3107 94.5429 15.692C93.9709 16.0733 93.2302 16.264 92.3209 16.264ZM92.9589 14.064C93.7656 14.064 94.3889 13.8 94.8289 13.272C95.2836 12.744 95.5696 12.0913 95.6869 11.314H93.2889C92.5409 11.314 92.0056 11.4533 91.6829 11.732C91.3602 11.996 91.1989 12.326 91.1989 12.722C91.1989 13.1473 91.3602 13.4773 91.6829 13.712C92.0056 13.9467 92.4309 14.064 92.9589 14.064ZM101.256 16V5.088H103.742L103.962 6.936C104.3 6.29067 104.784 5.77733 105.414 5.396C106.06 5.01467 106.815 4.824 107.68 4.824C109.03 4.824 110.078 5.24933 110.826 6.1C111.574 6.95067 111.948 8.19733 111.948 9.84V16H109.132V10.104C109.132 9.16533 108.942 8.44667 108.56 7.948C108.179 7.44933 107.585 7.2 106.778 7.2C105.986 7.2 105.334 7.47867 104.82 8.036C104.322 8.59333 104.072 9.37067 104.072 10.368V16H101.256ZM119.949 16V0.599999H122.765V7.002H129.673V0.599999H132.489V16H129.673V9.29H122.765V16H119.949ZM140.718 16.264C139.618 16.264 138.643 16.0293 137.792 15.56C136.942 15.0907 136.274 14.4307 135.79 13.58C135.306 12.7293 135.064 11.7467 135.064 10.632C135.064 9.50267 135.299 8.498 135.768 7.618C136.252 6.738 136.912 6.056 137.748 5.572C138.599 5.07333 139.596 4.824 140.74 4.824C141.811 4.824 142.757 5.05867 143.578 5.528C144.4 5.99733 145.038 6.64267 145.492 7.464C145.962 8.27067 146.196 9.17267 146.196 10.17C146.196 10.3313 146.189 10.5 146.174 10.676C146.174 10.852 146.167 11.0353 146.152 11.226H137.858C137.917 12.0767 138.21 12.744 138.738 13.228C139.281 13.712 139.934 13.954 140.696 13.954C141.268 13.954 141.745 13.8293 142.126 13.58C142.522 13.316 142.816 12.9787 143.006 12.568H145.866C145.661 13.2573 145.316 13.888 144.832 14.46C144.363 15.0173 143.776 15.4573 143.072 15.78C142.383 16.1027 141.598 16.264 140.718 16.264ZM140.74 7.112C140.051 7.112 139.442 7.31 138.914 7.706C138.386 8.08733 138.049 8.674 137.902 9.466H143.336C143.292 8.74733 143.028 8.17533 142.544 7.75C142.06 7.32467 141.459 7.112 140.74 7.112ZM152.327 16.264C151.388 16.264 150.618 16.1173 150.017 15.824C149.415 15.516 148.968 15.1127 148.675 14.614C148.381 14.1153 148.235 13.5653 148.235 12.964C148.235 11.952 148.631 11.1307 149.423 10.5C150.215 9.86933 151.403 9.554 152.987 9.554H155.759V9.29C155.759 8.542 155.546 7.992 155.121 7.64C154.695 7.288 154.167 7.112 153.537 7.112C152.965 7.112 152.466 7.25133 152.041 7.53C151.615 7.794 151.351 8.19 151.249 8.718H148.499C148.572 7.926 148.836 7.23667 149.291 6.65C149.76 6.06333 150.361 5.616 151.095 5.308C151.828 4.98533 152.649 4.824 153.559 4.824C155.113 4.824 156.338 5.21267 157.233 5.99C158.127 6.76733 158.575 7.86733 158.575 9.29V16H156.177L155.913 14.24C155.59 14.8267 155.135 15.3107 154.549 15.692C153.977 16.0733 153.236 16.264 152.327 16.264ZM152.965 14.064C153.771 14.064 154.395 13.8 154.835 13.272C155.289 12.744 155.575 12.0913 155.693 11.314H153.295C152.547 11.314 152.011 11.4533 151.689 11.732C151.366 11.996 151.205 12.326 151.205 12.722C151.205 13.1473 151.366 13.4773 151.689 13.712C152.011 13.9467 152.437 14.064 152.965 14.064ZM165.974 16C164.83 16 163.913 15.7213 163.224 15.164C162.534 14.6067 162.19 13.6167 162.19 12.194V7.442H160.32V5.088H162.19L162.52 2.162H165.006V5.088H167.954V7.442H165.006V12.216C165.006 12.744 165.116 13.1107 165.336 13.316C165.57 13.5067 165.966 13.602 166.524 13.602H167.888V16H165.974ZM175.68 16V0.599999H181.378C182.61 0.599999 183.629 0.805332 184.436 1.216C185.242 1.62667 185.844 2.19133 186.24 2.91C186.636 3.62867 186.834 4.43533 186.834 5.33C186.834 6.18067 186.643 6.96533 186.262 7.684C185.88 8.388 185.286 8.96 184.48 9.4C183.673 9.82533 182.639 10.038 181.378 10.038H178.496V16H175.68ZM178.496 7.75H181.202C182.184 7.75 182.888 7.53733 183.314 7.112C183.754 6.672 183.974 6.078 183.974 5.33C183.974 4.56733 183.754 3.97333 183.314 3.548C182.888 3.108 182.184 2.888 181.202 2.888H178.496V7.75ZM193.654 16.264C192.598 16.264 191.645 16.022 190.794 15.538C189.958 15.054 189.291 14.3867 188.792 13.536C188.308 12.6707 188.066 11.6733 188.066 10.544C188.066 9.41467 188.316 8.42467 188.814 7.574C189.313 6.70867 189.98 6.034 190.816 5.55C191.667 5.066 192.62 4.824 193.676 4.824C194.718 4.824 195.656 5.066 196.492 5.55C197.343 6.034 198.01 6.70867 198.494 7.574C198.993 8.42467 199.242 9.41467 199.242 10.544C199.242 11.6733 198.993 12.6707 198.494 13.536C198.01 14.3867 197.343 15.054 196.492 15.538C195.642 16.022 194.696 16.264 193.654 16.264ZM193.654 13.822C194.388 13.822 195.026 13.5507 195.568 13.008C196.111 12.4507 196.382 11.6293 196.382 10.544C196.382 9.45867 196.111 8.64467 195.568 8.102C195.026 7.54467 194.395 7.266 193.676 7.266C192.928 7.266 192.283 7.54467 191.74 8.102C191.212 8.64467 190.948 9.45867 190.948 10.544C190.948 11.6293 191.212 12.4507 191.74 13.008C192.283 13.5507 192.921 13.822 193.654 13.822ZM201.76 16V5.088H204.268L204.532 7.134C204.928 6.43 205.463 5.87267 206.138 5.462C206.827 5.03667 207.634 4.824 208.558 4.824V7.794H207.766C207.15 7.794 206.6 7.88933 206.116 8.08C205.632 8.27067 205.251 8.60067 204.972 9.07C204.708 9.53933 204.576 10.192 204.576 11.028V16H201.76ZM215.345 16C214.201 16 213.284 15.7213 212.595 15.164C211.905 14.6067 211.561 13.6167 211.561 12.194V7.442H209.691V5.088H211.561L211.891 2.162H214.377V5.088H217.325V7.442H214.377V12.216C214.377 12.744 214.487 13.1107 214.707 13.316C214.941 13.5067 215.337 13.602 215.895 13.602H217.259V16H215.345ZM223.505 16.264C222.566 16.264 221.796 16.1173 221.195 15.824C220.593 15.516 220.146 15.1127 219.853 14.614C219.559 14.1153 219.413 13.5653 219.413 12.964C219.413 11.952 219.809 11.1307 220.601 10.5C221.393 9.86933 222.581 9.554 224.165 9.554H226.937V9.29C226.937 8.542 226.724 7.992 226.299 7.64C225.873 7.288 225.345 7.112 224.715 7.112C224.143 7.112 223.644 7.25133 223.219 7.53C222.793 7.794 222.529 8.19 222.427 8.718H219.677C219.75 7.926 220.014 7.23667 220.469 6.65C220.938 6.06333 221.539 5.616 222.273 5.308C223.006 4.98533 223.827 4.824 224.737 4.824C226.291 4.824 227.516 5.21267 228.411 5.99C229.305 6.76733 229.753 7.86733 229.753 9.29V16H227.355L227.091 14.24C226.768 14.8267 226.313 15.3107 225.727 15.692C225.155 16.0733 224.414 16.264 223.505 16.264ZM224.143 14.064C224.949 14.064 225.573 13.8 226.013 13.272C226.467 12.744 226.753 12.0913 226.871 11.314H224.473C223.725 11.314 223.189 11.4533 222.867 11.732C222.544 11.996 222.383 12.326 222.383 12.722C222.383 13.1473 222.544 13.4773 222.867 13.712C223.189 13.9467 223.615 14.064 224.143 14.064ZM232.44 16V0.159999H235.256V16H232.44Z" fill="url(#paint0_linear_2812_2808)"/>
<defs>
<linearGradient id="paint0_linear_2812_2808" x1="-1" y1="8.5" x2="237" y2="8.5" gradientUnits="userSpaceOnUse">
<stop stop-color="#ED7A63"/>
<stop offset="0.49" stop-color="#E49672"/>
<stop offset="1" stop-color="#FFF2AF"/>
</linearGradient>
</defs>
</svg>
