<svg width="24" height="24" viewBox="0 0 24 24" fill="none" xmlns="http://www.w3.org/2000/svg">
<path d="M22.5882 21.4737H19.6582V18.1654C19.9245 18.2556 20.2175 18.2857 20.5105 18.2857C22.4284 18.2857 24 16.5414 24 14.3459C24 12.8421 23.2542 11.5188 22.1354 10.8571C21.7625 9.11278 20.3774 7.78947 18.6992 7.78947C17.9534 7.78947 17.2342 8.06015 16.6748 8.51128C16.7547 8.99248 16.808 9.47368 16.808 9.95489C16.808 12.4812 15.6093 14.7068 13.8513 15.9398C14.384 17.2932 15.6093 18.2556 17.0211 18.2556C17.3407 18.2556 17.6337 18.1955 17.9267 18.1053V21.4436H9.2697C9.2697 21.3835 9.29634 21.2932 9.29634 21.2331V15.7895C9.72253 15.9098 10.1487 15.9699 10.6016 15.9699C13.5316 15.9699 15.9023 13.2932 15.9023 9.98496C15.9023 7.66917 14.7569 5.68421 13.0522 4.69173C12.5194 2.01504 10.4151 0 7.88457 0C5.32741 0 3.16981 2.07519 2.69034 4.81203C1.06548 5.83459 0 7.7594 0 9.98496C0 13.2932 2.3707 15.9699 5.30078 15.9699C5.78024 15.9699 6.23307 15.9098 6.68591 15.7594V21.2632C6.68591 21.3233 6.68591 21.4135 6.71254 21.4737H1.41176C0.799112 21.4737 0.293008 22.0451 0.293008 22.7368C0.293008 23.4286 0.799112 24 1.41176 24H22.5882C23.2009 24 23.707 23.4286 23.707 22.7368C23.707 22.0451 23.2009 21.4737 22.5882 21.4737Z" fill="#828282"/>
</svg>
