<svg width="24" height="24" viewBox="0 0 24 24" fill="none" xmlns="http://www.w3.org/2000/svg">
<path d="M22.7861 20.25H1.2392C0.556375 20.25 0 21.0918 0 22.125C0 23.1582 0.556375 24 1.2392 24H22.7608C23.4436 24 24 23.1582 24 22.125C24 21.0918 23.4689 20.25 22.7861 20.25Z" fill="#828282"/>
<path d="M3.16347 14.6632L3.66505 16.1556C3.90109 16.8826 4.43217 17.3035 5.02227 17.3035C5.1993 17.3035 5.40583 17.2653 5.58286 17.1505C6.32048 16.7296 6.67453 15.6199 6.34998 14.6632L5.8484 13.1709C5.49434 12.1377 5.64187 10.9132 6.17295 10.0331C7.55968 7.77544 7.7367 4.5994 6.55652 2.15041L5.96642 0.887651C5.55335 0.00754507 4.63871 -0.260313 3.9601 0.275403C3.28149 0.81112 3.07496 1.99735 3.48802 2.87746L4.07812 4.14022C4.6092 5.24992 4.52069 6.66574 3.90109 7.66064C2.69139 9.65044 2.39635 12.329 3.16347 14.6632Z" fill="#828282"/>
<path d="M10.1264 14.6632L10.6279 16.1556C10.864 16.8826 11.3951 17.3035 11.9852 17.3035C12.1622 17.3035 12.3687 17.2653 12.5457 17.1505C13.2834 16.7296 13.6374 15.6199 13.3129 14.6632L12.8113 13.1709C12.4572 12.1377 12.6048 10.9132 13.1358 10.0331C14.5226 7.77544 14.6996 4.5994 13.5194 2.15041L12.9293 0.887651C12.5162 0.00754507 11.6016 -0.260313 10.923 0.275403C10.2444 0.81112 10.0378 1.99735 10.4509 2.87746L11.041 4.14022C11.5721 5.24992 11.4836 6.66574 10.864 7.66064C9.65428 9.65044 9.35924 12.329 10.1264 14.6632Z" fill="#828282"/>
<path d="M17.1191 14.6632L17.6206 16.1556C17.8567 16.8826 18.3878 17.3035 18.9779 17.3035C19.1549 17.3035 19.3614 17.2653 19.5384 17.1505C20.2761 16.7296 20.6301 15.6199 20.3056 14.6632L19.7745 13.1709C19.4204 12.1377 19.568 10.9132 20.099 10.0331C21.4858 7.77544 21.6628 4.5994 20.4826 2.15041L19.8925 0.887651C19.4794 0.00754507 18.5648 -0.260313 17.8862 0.275403C17.2076 0.81112 17.001 1.99735 17.4141 2.87746L18.0042 4.14022C18.5353 5.24992 18.4468 6.66574 17.8272 7.66064C16.6175 9.65044 16.3519 12.329 17.1191 14.6632Z" fill="#828282"/>
</svg>
