<svg width="24" height="24" viewBox="0 0 24 24" fill="none" xmlns="http://www.w3.org/2000/svg">
<path d="M22.6432 23.3058H18.8071H17.4771C16.2464 22.5977 14.2213 22.164 13.3575 22.0326V17.1078C13.7396 17.1907 14.1356 17.2351 14.5378 17.2351C16.259 17.2351 17.7832 16.4712 18.4208 15.2892C18.5006 15.1411 18.7072 15.0527 18.9191 15.0735C18.9301 15.0747 18.9686 15.0786 18.9792 15.0805C19.2531 15.1221 19.5363 15.1432 19.8212 15.1432C22.1251 15.1432 24 13.7573 24 12.0535C24 10.6109 22.6807 9.37794 20.7883 9.04726C20.7786 9.04611 20.7689 9.04472 20.7595 9.0431C20.5865 9.01417 20.4503 8.91583 20.4071 8.78855C20.3692 8.67655 20.409 8.55761 20.5129 8.47222C21.1145 7.92425 21.4453 7.23374 21.4453 6.52633C21.4453 4.82296 19.5708 3.43707 17.2665 3.43707C17.0818 3.43707 16.8965 3.44586 16.7159 3.46345C16.464 3.48867 16.2295 3.35862 16.1907 3.17211L16.1845 3.14272C16.1807 3.12513 16.1788 3.10755 16.1788 3.08973C16.1788 1.38612 14.3043 0 12 0C9.69571 0 7.82117 1.38589 7.82117 3.08973C7.82117 3.10731 7.8193 3.1249 7.81554 3.14272L7.80928 3.17211C7.77047 3.35862 7.53697 3.48867 7.28407 3.46345C7.10347 3.44586 6.91818 3.43707 6.73351 3.43707C4.42954 3.43707 2.55468 4.82272 2.55468 6.52633C2.55468 7.23166 2.88364 7.91986 3.48178 8.46713C3.58976 8.55298 3.63202 8.67378 3.59321 8.78786C3.55033 8.91513 3.41355 9.01394 3.24046 9.04287C3.23389 9.04379 3.22731 9.04495 3.22074 9.04588C1.32335 9.37424 0 10.6088 0 12.0537C0 13.7573 1.87454 15.1434 4.17883 15.1434C4.46365 15.1434 4.74692 15.1221 5.02079 15.0807C5.03174 15.0789 5.04238 15.0775 5.05334 15.0763C5.26618 15.0555 5.49905 15.1413 5.57886 15.2892C6.21675 16.4712 7.74073 17.2351 9.46222 17.2351C9.8663 17.2351 10.2616 17.1925 10.6425 17.1097V22.0326C10.3086 22.0858 7.91945 22.4885 6.51535 23.3058H5.19294H1.35935C1.09987 23.3058 0.889851 23.4613 0.889851 23.6529C0.889851 23.8445 1.09987 24 1.35935 24H5.428H12.0013H18.5745H22.6432C22.9023 24 23.1127 23.8445 23.1127 23.6529C23.1127 23.4613 22.9023 23.3058 22.6432 23.3058Z" fill="#828282"/>
</svg>
