<svg width="24" height="24" viewBox="0 0 24 24" fill="none" xmlns="http://www.w3.org/2000/svg">
<path d="M14.4809 14.0735C16.488 14.0735 18.1378 12.5264 18.3085 10.5625C19.2008 9.9102 19.7442 8.86481 19.7442 7.74561C19.7442 5.82103 18.1781 4.25503 16.2534 4.25503C15.9613 4.25503 15.6762 4.29466 15.3988 4.36497C14.5218 3.02173 13.0101 2.12911 11.29 2.12911C10.0924 2.12911 8.96424 2.55449 8.07031 3.33525C7.73441 3.24065 7.38764 3.19271 7.03544 3.19271C5.12165 3.19271 3.53002 4.59827 3.23822 6.43145C1.4053 6.72291 0 8.31448 0 10.2282C0 12.3484 1.7249 14.0735 3.84483 14.0735H11.345V17.0176H9.16272C8.91471 17.0176 8.68811 17.1576 8.5772 17.3794L5.74168 23.0527C5.64037 23.256 5.65123 23.497 5.77044 23.6894C5.88966 23.8824 6.10028 24 6.32719 24H17.6718C17.677 24 17.6814 24 17.6846 24C18.0464 24 18.3392 23.7073 18.3392 23.3455C18.3392 23.1959 18.2893 23.0578 18.2049 22.9479L15.4218 17.3794C15.3113 17.1576 15.0843 17.0176 14.8363 17.0176H12.6541V14.0735H14.4809ZM14.4317 18.3266L16.6127 22.691H7.38604L9.56734 18.3266H11.345V20.5088C11.345 20.8706 11.638 21.1633 11.9995 21.1633C12.361 21.1633 12.6541 20.8706 12.6541 20.5088V18.3266H14.4317ZM16.2534 5.56408C17.4564 5.56408 18.4351 6.54267 18.4351 7.74561C18.4351 8.16938 18.3072 8.57494 18.0854 8.92106C17.7511 8.00479 17.0831 7.2317 16.1914 6.78811C16.1703 6.3736 16.093 5.97443 15.9748 5.59284C16.0674 5.58102 16.1588 5.56408 16.2534 5.56408ZM3.84483 12.7645C2.44657 12.7645 1.3091 11.6267 1.3091 10.2282C1.3091 8.82998 2.44657 7.69255 3.84483 7.69255C4.2063 7.69255 4.49938 7.39949 4.49938 7.03803C4.49938 5.6395 5.63717 4.50176 7.03544 4.50176C7.36271 4.50176 7.68263 4.56472 7.98626 4.6884C8.23331 4.78811 8.51712 4.72963 8.70409 4.53755C9.38996 3.8287 10.3085 3.43816 11.29 3.43816C13.2741 3.43816 14.8887 5.05305 14.8887 7.03803L14.8811 7.19943C14.8715 7.48514 15.0492 7.74337 15.3183 7.83797C16.3321 8.19335 17.0135 9.15117 17.0154 10.2228C17.016 10.2349 17.0122 10.2464 17.0128 10.2582C16.9962 11.6427 15.8686 12.7645 14.4809 12.7645H12.6541V11.1208C13.4755 10.845 14.0725 10.0767 14.0725 9.16395C14.0725 8.02109 13.1424 7.09108 11.9995 7.09108C10.8566 7.09108 9.92657 8.02109 9.92657 9.16395C9.92657 10.0767 10.5239 10.845 11.345 11.1208V12.7645H3.84483ZM11.9995 9.92777C11.5783 9.92777 11.2357 9.58517 11.2357 9.16395C11.2357 8.74273 11.5783 8.40013 11.9995 8.40013C12.4208 8.40013 12.7634 8.74273 12.7634 9.16395C12.7634 9.58517 12.4208 9.92777 11.9995 9.92777ZM24 7.74561C24 8.10706 23.7072 8.40013 23.3455 8.40013H21.8177C21.456 8.40013 21.1632 8.10706 21.1632 7.74561C21.1632 7.38415 21.456 7.09108 21.8177 7.09108H23.3455C23.7072 7.09108 24 7.38415 24 7.74561ZM19.725 4.27421C19.4693 4.01854 19.4693 3.60435 19.725 3.34867L20.8052 2.26846C21.0609 2.01278 21.4751 2.01278 21.7308 2.26846C21.9865 2.52413 21.9865 2.93832 21.7308 3.19399L20.6506 4.27421C20.5227 4.40205 20.3552 4.46596 20.1878 4.46596C20.0203 4.46596 19.8528 4.40205 19.725 4.27421ZM15.5989 2.18217V0.654522C15.5989 0.293065 15.8917 0 16.2534 0C16.6152 0 16.908 0.293065 16.908 0.654522V2.18217C16.908 2.54362 16.6152 2.83669 16.2534 2.83669C15.8917 2.83669 15.5989 2.54362 15.5989 2.18217ZM21.7308 12.2979C21.9865 12.5535 21.9865 12.9677 21.7308 13.2234C21.603 13.3512 21.4355 13.4151 21.268 13.4151C21.1006 13.4151 20.9331 13.3512 20.8052 13.2234L19.725 12.1432C19.4693 11.8875 19.4693 11.4733 19.725 11.2176C19.9807 10.962 20.3949 10.962 20.6506 11.2176L21.7308 12.2979Z" fill="#828282"/>
</svg>
