<svg width="24" height="24" viewBox="0 0 24 24" fill="none" xmlns="http://www.w3.org/2000/svg">
<g clip-path="url(#clip0_4379_3431)">
<path d="M9.5 12V6C9.5 4.34 8.16 3 6.5 3C4.84 3 3.5 4.34 3.5 6V12C2.29 12.91 1.5 14.37 1.5 16C1.5 17.12 1.88 18.14 2.5 18.97V19H2.52C3.43 20.21 4.87 21 6.5 21C8.13 21 9.56 20.21 10.48 19H10.5V18.97C11.12 18.14 11.5 17.12 11.5 16C11.5 14.37 10.71 12.91 9.5 12ZM3.5 16C3.5 15.06 3.95 14.16 4.7 13.6L5.5 13V6C5.5 5.45 5.95 5 6.5 5C7.05 5 7.5 5.45 7.5 6V13L8.3 13.6C9.05 14.17 9.5 15.06 9.5 16H3.5ZM16.28 5.67L13.69 13L14.5 10.7H18.13L18.93 13L18 10L16.28 5.67ZM14.97 9.39L16.28 5.67H16.36L17.67 9.39H14.97Z" fill="#828282"/>
<rect width="13.5417" height="8" transform="translate(11 5)" fill="black"/>
<path d="M11.7767 6.18182H13.2937L14.896 10.0909H14.9642L16.5665 6.18182H18.0835V12H16.8903V8.21307H16.842L15.3363 11.9716H14.5238L13.0182 8.19886H12.9699V12H11.7767V6.18182ZM19.097 12V6.18182H21.3924C21.8318 6.18182 22.2068 6.26042 22.5174 6.41761C22.8299 6.57292 23.0676 6.79356 23.2305 7.07955C23.3953 7.36364 23.4777 7.69792 23.4777 8.08239C23.4777 8.46875 23.3943 8.80114 23.2277 9.07955C23.061 9.35606 22.8195 9.56818 22.5032 9.71591C22.1888 9.86364 21.8082 9.9375 21.3612 9.9375H19.8243V8.94886H21.1623C21.3972 8.94886 21.5923 8.91667 21.7476 8.85227C21.9029 8.78788 22.0184 8.69129 22.0941 8.5625C22.1718 8.43371 22.2106 8.27367 22.2106 8.08239C22.2106 7.8892 22.1718 7.72633 22.0941 7.59375C22.0184 7.46117 21.9019 7.3608 21.7447 7.29261C21.5894 7.22254 21.3934 7.1875 21.1566 7.1875H20.3271V12H19.097ZM22.239 9.35227L23.6851 12H22.3271L20.9123 9.35227H22.239Z" fill="#828282"/>
</g>
<defs>
<clipPath id="clip0_4379_3431">
<rect width="24" height="24" fill="white"/>
</clipPath>
</defs>
</svg>
