<svg width="24" height="24" viewBox="0 0 24 24" fill="none" xmlns="http://www.w3.org/2000/svg">
<path d="M17.7273 11.4871H16.0909V13.0109H17.7273V11.4871Z" fill="#828282"/>
<path d="M17.7273 14.5347H16.0909V16.0585H17.7273V14.5347Z" fill="#828282"/>
<path d="M17.7273 17.5823H16.0909V19.1061H17.7273V17.5823Z" fill="#828282"/>
<path d="M3 14.5347V22.1537H7.90909V18.3442H9.54545V22.1537H14.4545V14.5347L8.72727 10.7252L3 14.5347ZM12.8182 20.6299H11.1818V16.8204H6.27273V20.6299H4.63636V15.2966L8.72727 12.6299L12.8182 15.2966V20.6299Z" fill="#828282"/>
<path d="M10.3636 8.43945V9.94041L12 11.0299V9.96326H19.3636V20.6299H16.0909V22.1537H21V8.43945H10.3636Z" fill="#828282"/>
<path d="M4.49034 2.85375L3.79634 2.1636L3.2527 2.70724L3.94285 3.39739L4.49034 2.85375ZM2.26953 5.03601H3.4262V5.80712H2.26953V5.03601ZM6.12511 1.19971H6.89622V2.3371H6.12511V1.19971ZM9.22499 2.16167L9.76786 2.70415L9.07771 3.3943L8.53523 2.85144L9.22499 2.16167ZM8.53099 7.98938L9.22114 8.68338L9.76477 8.13975L9.07077 7.4496L8.53099 7.98938ZM9.59513 5.03601H10.7518V5.80712H9.59513V5.03601ZM6.51067 3.10822C5.23447 3.10822 4.19732 4.14537 4.19732 5.42156C4.19732 6.69776 5.23447 7.73491 6.51067 7.73491C7.78686 7.73491 8.82401 6.69776 8.82401 5.42156C8.82401 4.14537 7.78686 3.10822 6.51067 3.10822ZM6.51067 6.9638C5.65858 6.9638 7.29578 5.1678 5.97308 5.1678C6.89622 5.1678 6.50129 5.29943 6.51067 3.87933C6.50216 5.1678 5.17946 4.58025 5.17946 5.43233C5.17946 6.28442 5.17946 6.75503 6.51067 6.9638ZM6.12511 8.50603H6.89622V9.64342H6.12511V8.50603ZM3.2527 8.13589L3.79634 8.67953L4.48649 7.98552L3.94285 7.44189L3.2527 8.13589Z" fill="#828282"/>
</svg>
