<svg width="24" height="24" viewBox="0 0 24 24" fill="none" xmlns="http://www.w3.org/2000/svg">
<path d="M12.0004 12.2305C14.6602 12.2305 17.3509 10.8919 17.3509 7.88635C17.3509 6.3457 14.6911 2.58248 13.1138 0.511444C12.588 -0.170481 11.3819 -0.170481 10.887 0.511444C9.3097 2.58248 6.6499 6.3457 6.6499 7.88635C6.6499 10.8919 9.34062 12.2305 12.0004 12.2305ZM9.40248 6.54775C9.46433 6.44672 9.55712 6.37096 9.71176 6.37096C9.8664 6.37096 9.95918 6.42147 10.021 6.52249C10.8561 8.03788 11.9386 9.0734 13.2375 9.62905C13.3612 9.67956 13.4231 9.78058 13.4231 9.90687C13.4231 10.0079 13.3303 10.1089 13.2066 10.1342C12.8045 10.2352 12.4025 10.2857 12.0313 10.2857C11.1344 10.2857 9.03135 10.0584 9.03135 7.86109C9.00042 7.58327 9.15506 7.12865 9.40248 6.54775Z" fill="#828282"/>
<path d="M3.12428 17.3322C2.22738 18.5193 0.711914 20.6408 0.711914 21.5248C0.711914 23.2423 2.22738 24 3.74284 24C5.25831 24 6.77377 23.2423 6.77377 21.5248C6.77377 20.6408 5.25831 18.5193 4.3614 17.3322C4.11398 16.9534 3.43356 16.9534 3.12428 17.3322ZM4.57789 22.6866C4.57789 22.7371 4.51604 22.8129 4.45418 22.8129C4.23769 22.8634 3.99026 22.9139 3.77377 22.9139C3.248 22.9139 2.07274 22.7876 2.07274 21.5248C2.07274 21.348 2.13459 21.0955 2.28923 20.7671C2.32016 20.7166 2.38202 20.6661 2.4748 20.6661C2.56758 20.6661 2.62944 20.6913 2.66037 20.7671C3.12428 21.6258 3.74284 22.232 4.48511 22.5351C4.54697 22.5603 4.57789 22.6108 4.57789 22.6866Z" fill="#828282"/>
<path d="M11.3513 17.3322C10.4544 18.5193 8.93896 20.6408 8.93896 21.5248C8.93896 23.2423 10.4544 24 11.9699 24C13.4854 24 15.0008 23.2423 15.0008 21.5248C15.0008 20.6408 13.4854 18.5193 12.5884 17.3322C12.341 16.9534 11.6606 16.9534 11.3513 17.3322ZM12.8049 22.6866C12.8049 22.7371 12.7431 22.8129 12.6812 22.8129C12.4647 22.8634 12.2173 22.9139 12.0008 22.9139C11.475 22.9139 10.2998 22.7876 10.2998 21.5248C10.2998 21.348 10.3616 21.0955 10.5163 20.7671C10.5472 20.7166 10.6091 20.6661 10.7019 20.6661C10.7946 20.6661 10.8565 20.6913 10.8874 20.7671C11.3513 21.6258 11.9699 22.232 12.7122 22.5351C12.774 22.5603 12.8049 22.6108 12.8049 22.6866Z" fill="#828282"/>
<path d="M19.5779 17.3322C18.681 18.5193 17.1655 20.6408 17.1655 21.5248C17.1655 23.2423 18.681 24 20.1965 24C21.7119 24 23.2274 23.2423 23.2274 21.5248C23.2274 20.6408 21.7119 18.5193 20.815 17.3322C20.5676 16.9534 19.8872 16.9534 19.5779 17.3322ZM21.0315 22.6866C21.0315 22.7371 20.9697 22.8129 20.9078 22.8129C20.6913 22.8634 20.4439 22.9139 20.2274 22.9139C19.7016 22.9139 18.5264 22.7876 18.5264 21.5248C18.5264 21.348 18.5882 21.0955 18.7428 20.7671C18.7738 20.7166 18.8356 20.6661 18.9284 20.6661C19.0212 20.6661 19.0831 20.6913 19.114 20.7671C19.5779 21.6258 20.1965 22.232 20.9387 22.5351C21.0006 22.5603 21.0315 22.6108 21.0315 22.6866Z" fill="#828282"/>
<path d="M22.8562 13.7461H1.14482C0.526261 13.7461 0.000488281 14.1502 0.000488281 14.6806C0.000488281 15.211 0.495334 15.6151 1.14482 15.6151H22.8562C23.4747 15.6151 24.0005 15.211 24.0005 14.6806C24.0005 14.1502 23.4747 13.7461 22.8562 13.7461Z" fill="#828282"/>
</svg>
